<?xml version="1.0" encoding="UTF-8" standalone="no"?>
<svg
   version="1.1"
   width="297.0022mm"
   height="210.0072mm"
   viewBox="0.0000 0.0000 297.0022 210.0072"
   id="svg407"
   sodipodi:docname="Spannungswandler-fix.svg"
   inkscape:version="1.4.2 (ebf0e940d0, 2025-05-08)"
   xmlns:inkscape="http://www.inkscape.org/namespaces/inkscape"
   xmlns:sodipodi="http://sodipodi.sourceforge.net/DTD/sodipodi-0.dtd"
   xmlns="http://www.w3.org/2000/svg"
   xmlns:svg="http://www.w3.org/2000/svg"
   xmlns:rdf="http://www.w3.org/1999/02/22-rdf-syntax-ns#"
   xmlns:cc="http://creativecommons.org/ns#"
   xmlns:dc="http://purl.org/dc/elements/1.1/">
  <defs
     id="defs407" />
  <sodipodi:namedview
     id="namedview407"
     pagecolor="#ffffff"
     bordercolor="#000000"
     borderopacity="0.25"
     inkscape:showpageshadow="2"
     inkscape:pageopacity="0.0"
     inkscape:pagecheckerboard="0"
     inkscape:deskcolor="#d1d1d1"
     inkscape:document-units="mm"
     inkscape:zoom="11.688186"
     inkscape:cx="597.09864"
     inkscape:cy="274.63629"
     inkscape:window-width="1920"
     inkscape:window-height="1022"
     inkscape:window-x="0"
     inkscape:window-y="0"
     inkscape:window-maximized="1"
     inkscape:current-layer="svg407" />
  <title
     id="title1">SVG Image created as Spannungswandler-User_1.svg date 2025/10/06 14:29:22 </title>
  <desc
     id="desc1">Image generated by PCBNEW </desc>
  <path
     d="m 159.16806,70.825134 h 0.94982 l 0.0956,0.01912 0.0811,0.05374 0.0543,0.08113 0.0191,0.09612 v 0.499711 l -0.0191,0.0956 -0.0543,0.08113 -0.0811,0.05426 -0.0956,0.01912 h -0.94982 l -0.0956,-0.01912 -0.0811,-0.05426 -0.0543,-0.08113 -0.0191,-0.0956 v -0.499711 l 0.0191,-0.09612 0.0543,-0.08113 0.0811,-0.05374 z"
     style="fill-rule:evenodd;stroke-width:0.1;stroke-dasharray:none;stroke:#000000;stroke-opacity:1;fill:#000000;fill-opacity:1"
     id="path586" />
  <path
     d="m 159.16806,72.72476 h 0.94982 l 0.0956,0.01912 0.0811,0.05426 0.0543,0.08113 0.0191,0.0956 v 0.500228 l -0.0191,0.0956 -0.0543,0.08113 -0.0811,0.05426 -0.0956,0.01912 h -0.94982 l -0.0956,-0.01912 -0.0811,-0.05426 -0.0543,-0.08113 -0.0191,-0.0956 v -0.500228 l 0.0191,-0.0956 0.0543,-0.08113 0.0811,-0.05426 z"
     style="fill-rule:evenodd;stroke-width:0.1;stroke-dasharray:none;stroke:#000000;stroke-opacity:1;fill:#000000;fill-opacity:1"
     id="path604" />
  <path
     d="m 152.74313,71.724821 -0.0956,0.01912 -0.0811,0.05426 -0.0543,0.08113 -0.0191,0.0956 v 0.949813 l 0.0191,0.09612 0.0543,0.08113 0.0811,0.05426 0.0956,0.0186 h 0.49971 l 0.0956,-0.0186 0.0811,-0.05426 0.0543,-0.08113 0.0191,-0.09612 v -0.949813 l -0.0191,-0.0956 -0.0543,-0.08113 -0.0811,-0.05426 -0.0956,-0.01912 z"
     style="fill:#000000;stroke:#000000;stroke-width:0.1;stroke-linecap:round;stroke-linejoin:round;stroke-dasharray:none;fill-opacity:1"
     id="path970" />
  <path
     d="m 150.84299,71.724821 -0.0956,0.01912 -0.0811,0.05426 -0.0543,0.08113 -0.0191,0.0956 v 0.949813 l 0.0191,0.09612 0.0543,0.08113 0.0811,0.05426 0.0956,0.0186 h 0.50023 l 0.0956,-0.0186 0.0811,-0.05426 0.0543,-0.08113 0.0186,-0.09612 v -0.949813 l -0.0186,-0.0956 -0.0543,-0.08113 -0.0811,-0.05426 -0.0956,-0.01912 z"
     style="fill:#000000;stroke:#000000;stroke-width:0.1;stroke-linecap:round;stroke-linejoin:round;stroke-dasharray:none;fill-opacity:1"
     id="path969" />
  <path
     d="m 152.26823,70.100114 -0.0579,0.01137 -0.0486,0.03256 -0.0325,0.04858 -0.0114,0.05736 v 0.30024 l 0.0114,0.05736 0.0325,0.04858 0.0486,0.03256 0.0579,0.01137 h 1.02474 l 0.0574,-0.01137 0.0486,-0.03256 0.0325,-0.04858 0.0114,-0.05736 v -0.30024 l -0.0114,-0.05736 -0.0325,-0.04858 -0.0486,-0.03256 -0.0574,-0.01137 z"
     style="fill:#000000;stroke:#000000;stroke-width:0.1;stroke-linecap:round;stroke-linejoin:round;stroke-dasharray:none;fill-opacity:1"
     id="path968" />
  <path
     d="m 149.99291,70.100114 -0.0574,0.01137 -0.0486,0.03256 -0.0326,0.04858 -0.0114,0.05736 v 0.30024 l 0.0114,0.05736 0.0326,0.04858 0.0486,0.03256 0.0574,0.01137 h 1.02526 l 0.0574,-0.01137 0.0486,-0.03256 0.0326,-0.04858 0.0114,-0.05736 v -0.30024 l -0.0114,-0.05736 -0.0326,-0.04858 -0.0486,-0.03256 -0.0574,-0.01137 z"
     style="fill:#000000;stroke:#000000;stroke-width:0.1;stroke-linecap:round;stroke-linejoin:round;stroke-dasharray:none;fill-opacity:1"
     id="path967" />
  <path
     d="m 152.26823,69.149784 -0.0579,0.01137 -0.0486,0.03256 -0.0325,0.04909 -0.0114,0.05736 v 0.299723 l 0.0114,0.05736 0.0325,0.04909 0.0486,0.03204 0.0579,0.01137 h 1.02474 l 0.0574,-0.01137 0.0486,-0.03204 0.0325,-0.04909 0.0114,-0.05736 v -0.299723 l -0.0114,-0.05736 -0.0325,-0.04909 -0.0486,-0.03256 -0.0574,-0.01137 z"
     style="fill:#000000;stroke:#000000;stroke-width:0.1;stroke-linecap:round;stroke-linejoin:round;stroke-dasharray:none;fill-opacity:1"
     id="path966" />
  <path
     d="m 149.99291,69.149784 -0.0574,0.01137 -0.0486,0.03256 -0.0326,0.04909 -0.0114,0.05736 v 0.299723 l 0.0114,0.05736 0.0326,0.04909 0.0486,0.03204 0.0574,0.01137 h 1.02526 l 0.0574,-0.01137 0.0486,-0.03204 0.0326,-0.04909 0.0114,-0.05736 v -0.299723 l -0.0114,-0.05736 -0.0326,-0.04909 -0.0486,-0.03256 -0.0574,-0.01137 z"
     style="fill:#000000;stroke:#000000;stroke-width:0.1;stroke-linecap:round;stroke-linejoin:round;stroke-dasharray:none;fill-opacity:1"
     id="path965" />
  <path
     d="m 152.26823,68.199972 -0.0579,0.01137 -0.0486,0.03256 -0.0325,0.04858 -0.0114,0.05736 v 0.30024 l 0.0114,0.05736 0.0325,0.04858 0.0486,0.03256 0.0579,0.01137 h 1.02474 l 0.0574,-0.01137 0.0486,-0.03256 0.0325,-0.04858 0.0114,-0.05736 v -0.30024 l -0.0114,-0.05736 -0.0325,-0.04858 -0.0486,-0.03256 -0.0574,-0.01137 z"
     style="fill:#000000;stroke:#000000;stroke-width:0.1;stroke-linecap:round;stroke-linejoin:round;stroke-dasharray:none;fill-opacity:1"
     id="path964" />
  <path
     d="m 149.99291,68.199972 -0.0574,0.01137 -0.0486,0.03256 -0.0326,0.04858 -0.0114,0.05736 v 0.30024 l 0.0114,0.05736 0.0326,0.04858 0.0486,0.03256 0.0574,0.01137 h 1.02526 l 0.0574,-0.01137 0.0486,-0.03256 0.0326,-0.04858 0.0114,-0.05736 v -0.30024 l -0.0114,-0.05736 -0.0326,-0.04858 -0.0486,-0.03256 -0.0574,-0.01137 z"
     style="fill:#000000;stroke:#000000;stroke-width:0.1;stroke-linecap:round;stroke-linejoin:round;stroke-dasharray:none;fill-opacity:1"
     id="path963" />
  <path
     d="m 157.4431,67.999984 -0.0956,0.01912 -0.0811,0.05426 -0.0543,0.08113 -0.0191,0.0956 v 3.199804 l 0.0191,0.0956 0.0543,0.08113 0.0811,0.05426 0.0956,0.01912 h 0.59997 l 0.0956,-0.01912 0.0811,-0.05426 0.0543,-0.08113 0.0191,-0.0956 v -3.199804 l -0.0191,-0.0956 -0.0543,-0.08113 -0.0811,-0.05426 -0.0956,-0.01912 z"
     style="fill:#000000;stroke:#000000;stroke-width:0.1;stroke-linecap:round;stroke-linejoin:round;stroke-dasharray:none;fill-opacity:1"
     id="path962" />
  <path
     d="m 154.44277,67.999984 -0.0956,0.01912 -0.0811,0.05426 -0.0543,0.08113 -0.0186,0.0956 v 3.199804 l 0.0186,0.0956 0.0543,0.08113 0.0811,0.05426 0.0956,0.01912 h 0.60048 l 0.0956,-0.01912 0.0811,-0.05426 0.0543,-0.08113 0.0186,-0.0956 v -3.199804 l -0.0186,-0.0956 -0.0543,-0.08113 -0.0811,-0.05426 -0.0956,-0.01912 z"
     style="fill:#000000;stroke:#000000;stroke-width:0.1;stroke-linecap:round;stroke-linejoin:round;stroke-dasharray:none;fill-opacity:1"
     id="path961" />
  <path
     d="m 154.54302,65.725187 -0.0956,0.0186 -0.0811,0.05426 -0.0543,0.08113 -0.0191,0.0956 v 0.95033 l 0.0191,0.0956 0.0543,0.08113 0.0811,0.05426 0.0956,0.01912 h 0.50023 l 0.0956,-0.01912 0.0811,-0.05426 0.0543,-0.08113 0.0186,-0.0956 v -0.95033 l -0.0186,-0.0956 -0.0543,-0.08113 -0.0811,-0.05426 -0.0956,-0.0186 z"
     style="fill:#000000;stroke:#000000;stroke-width:0.1;stroke-linecap:round;stroke-linejoin:round;stroke-dasharray:none;fill-opacity:1"
     id="path957" />
  <path
     d="m 152.64288,65.725187 -0.0956,0.0186 -0.0811,0.05426 -0.0543,0.08113 -0.0191,0.0956 v 0.95033 l 0.0191,0.0956 0.0543,0.08113 0.0811,0.05426 0.0956,0.01912 h 0.50023 l 0.0956,-0.01912 0.0811,-0.05426 0.0543,-0.08113 0.0191,-0.0956 v -0.95033 l -0.0191,-0.0956 -0.0543,-0.08113 -0.0811,-0.05426 -0.0956,-0.0186 z"
     style="fill:#000000;stroke:#000000;stroke-width:0.1;stroke-linecap:round;stroke-linejoin:round;stroke-dasharray:none;fill-opacity:1"
     id="path956" />
  <metadata
     id="metadata953">
    <rdf:RDF>
      <cc:Work
         rdf:about="">
        <dc:title>SVG Image created as Spannungswandler-User_1.svg date 2025/10/06 14:29:22 </dc:title>
      </cc:Work>
    </rdf:RDF>
  </metadata>
  <rect
     style="fill:none;stroke:#000000;stroke-width:0.1;stroke-opacity:1;stroke-dasharray:none"
     id="rect1"
     width="19.303495"
     height="15.102717"
     x="148.3476"
     y="64.950974" />
</svg>
